# xmcd CD database file
#
# Track frame offsets:
#	150
#	29875
#	56517
#	100445
#	136592
#	159230
#	185560
#	226030
#	250965
#
# Disc length: 3772 seconds
#
# Revision: 1
# Processed by: cddbd v1.5.2PL0 Copyright (c) Steve Scherf et al.
# Submitted via: CDex 1.50beta8
#
DISCID=710eba09
DTITLE=Sleep Walker - Works
DYEAR=2007
DGENRE=Jazz
TTITLE0=Quiet Dawn
TTITLE1=Wind feat Yukimi Nagano
TTITLE2=River Of Love feat Bembe Segue
TTITLE3=Pathways "Jazztronik Theme" (Sleep Walker Remix) - Jazztronik
TTITLE4=Don't Believe A Word (Sleep Walker Remix) - Victor Davies
TTITLE5=Big Escape
TTITLE6=Eclipse
TTITLE7=Sim Ou Nao (Sleep Wakler Re-Work) - Jazzinho
TTITLE8=Waltz For Moe (New Take)
EXTD=YEAR: 2007
EXTT0=
EXTT1=
EXTT2=
EXTT3=
EXTT4=
EXTT5=
EXTT6=
EXTT7=
EXTT8=
PLAYORDER=
